<?xml version="1.0" encoding="UTF-8"?>
<svg xmlns="http://www.w3.org/2000/svg" xmlns:xlink="http://www.w3.org/1999/xlink" width="16px" height="16px" viewBox="0 0 16 16" version="1.1">
<g id="surface92">
<path style=" stroke:none;fill-rule:nonzero;fill:rgb(14.117648%,12.156863%,19.215687%);fill-opacity:1;" d="M 7 12.5 C 7 13.328125 6.328125 14 5.5 14 C 4.671875 14 4 13.328125 4 12.5 C 4 11.671875 4.671875 11 5.5 11 C 6.328125 11 7 11.671875 7 12.5 Z M 7 12.5 "/>
<path style=" stroke:none;fill-rule:nonzero;fill:rgb(14.117648%,12.156863%,19.215687%);fill-opacity:1;" d="M 12 12.5 C 12 13.328125 11.328125 14 10.5 14 C 9.671875 14 9 13.328125 9 12.5 C 9 11.671875 9.671875 11 10.5 11 C 11.328125 11 12 11.671875 12 12.5 Z M 12 12.5 "/>
<path style=" stroke:none;fill-rule:nonzero;fill:rgb(14.117648%,12.156863%,19.215687%);fill-opacity:1;" d="M 1 7 L 1 9 L 16 9 L 16 7 Z M 1 7 "/>
<path style=" stroke:none;fill-rule:nonzero;fill:rgb(14.117648%,12.156863%,19.215687%);fill-opacity:1;" d="M 8 3 L 8 8 L 9 8 L 9 3 Z M 8 3 "/>
<path style=" stroke:none;fill-rule:nonzero;fill:rgb(14.117648%,12.156863%,19.215687%);fill-opacity:1;" d="M 3 3 L 3 8 L 4 8 L 4 3 Z M 3 3 "/>
<path style=" stroke:none;fill-rule:nonzero;fill:rgb(14.117648%,12.156863%,19.215687%);fill-opacity:1;" d="M 13 3 L 13 8 L 14 8 L 14 3 Z M 13 3 "/>
<path style=" stroke:none;fill-rule:nonzero;fill:rgb(14.117648%,12.156863%,19.215687%);fill-opacity:1;" d="M 5 3.5 C 5 4.328125 4.328125 5 3.5 5 C 2.671875 5 2 4.328125 2 3.5 C 2 2.671875 2.671875 2 3.5 2 C 4.328125 2 5 2.671875 5 3.5 Z M 5 3.5 "/>
<path style=" stroke:none;fill-rule:nonzero;fill:rgb(14.117648%,12.156863%,19.215687%);fill-opacity:1;" d="M 10 3.5 C 10 4.328125 9.328125 5 8.5 5 C 7.671875 5 7 4.328125 7 3.5 C 7 2.671875 7.671875 2 8.5 2 C 9.328125 2 10 2.671875 10 3.5 Z M 10 3.5 "/>
<path style=" stroke:none;fill-rule:nonzero;fill:rgb(14.117648%,12.156863%,19.215687%);fill-opacity:1;" d="M 15 3.5 C 15 4.328125 14.328125 5 13.5 5 C 12.671875 5 12 4.328125 12 3.5 C 12 2.671875 12.671875 2 13.5 2 C 14.328125 2 15 2.671875 15 3.5 Z M 15 3.5 "/>
<path style=" stroke:none;fill-rule:nonzero;fill:rgb(14.117648%,12.156863%,19.215687%);fill-opacity:1;" d="M 10 8 L 10 13 L 11 13 L 11 8 Z M 10 8 "/>
<path style=" stroke:none;fill-rule:nonzero;fill:rgb(14.117648%,12.156863%,19.215687%);fill-opacity:1;" d="M 5 8 L 5 13 L 6 13 L 6 8 Z M 5 8 "/>
</g>
</svg>
